<svg fill="currentColor" viewBox="0 0 536 579" xmlns="http://www.w3.org/2000/svg">
<rect/>
<path fill-rule="evenodd" clip-rule="evenodd" d="M58.1421 523.279C42.153 523.279 28.4654 517.586 17.0793 506.2C5.69308 494.814 0 481.126 0 465.137V58.1421C0 42.153 5.69308 28.4654 17.0793 17.0793C28.4654 5.69308 42.153 0 58.1421 0H465.137C481.126 0 494.814 5.69308 506.2 17.0793C517.586 28.4654 523.279 42.153 523.279 58.1421V348.853H465.137H290.711V465.137V523.279H58.1421ZM58.1421 348.853H232.569V465.137H58.1421V348.853ZM232.569 174.426V290.711H58.1421V174.426H232.569ZM465.137 290.711H290.711V174.426H465.137V290.711ZM465.137 116.284H58.1421V58.1421H465.137V116.284Z"/>
<path d="M412.366 485.487H319.702V454.599H412.366V361.935H443.254V454.599H535.918V485.487H443.254V578.151H412.366V485.487Z"/>
</svg>
